<?xml version="1.0" encoding="utf-8"?>
<!-- Generator: Adobe Illustrator 18.1.1, SVG Export Plug-In . SVG Version: 6.00 Build 0)  -->
<svg version="1.1" id="Layer_1" xmlns="http://www.w3.org/2000/svg" xmlns:xlink="http://www.w3.org/1999/xlink" x="0px" y="0px"
	 viewBox="0 0 792 612" enable-background="new 0 0 792 612" xml:space="preserve">
<g>
	<rect x="64.3" y="93" fill="#FFFFFF" stroke="#000000" stroke-miterlimit="10" width="289.6" height="265.9"/>
	<g>
		<g>
			<g>
				<polygon fill="#FFFFFF" points="516,259.4 252.3,259.4 252.3,546.9 589.5,546.9 589.5,354.5 516,354.5 				"/>
			</g>
			<g>
				<polygon fill="none" stroke="#000000" stroke-miterlimit="10" points="516,259.4 252.3,259.4 252.3,546.9 589.5,546.9 
					589.5,354.5 516,354.5 				"/>
			</g>
		</g>
		<g>
			<g>
				<polygon fill="#FFFFFF" points="725.7,166.4 516,166.4 516,259.4 516,354.5 589.5,354.5 725.7,354.5 				"/>
			</g>
			<g>
				<polygon fill="none" stroke="#000000" stroke-miterlimit="10" points="725.7,166.4 516,166.4 516,259.4 516,354.5 589.5,354.5 
					725.7,354.5 				"/>
			</g>
		</g>
	</g>
</g>
<line fill="none" stroke="#000000" stroke-miterlimit="10" x1="110.8" y1="489.6" x2="181.6" y2="418.9"/>
<line fill="none" stroke="#000000" stroke-miterlimit="10" x1="146.7" y1="462.9" x2="217.4" y2="392.2"/>
<line fill="none" stroke="#000000" stroke-miterlimit="10" x1="123.8" y1="500.7" x2="194.5" y2="430"/>
<line fill="none" stroke="#000000" stroke-miterlimit="10" x1="159.6" y1="474" x2="230.4" y2="403.2"/>
<path fill="none" stroke="#000000" stroke-miterlimit="10" d="M414.7,58.3l212.2-27.5L646,80.5l-9.2,50.4c0,0-69.5,5.3-69.5,1.5
	c0-3.8,1.5-47.3,1.5-47.3l42.7-1.5l-5.3-19.8L491.8,75.9l-76.3,39.7L414.7,58.3z"/>
</svg>
