<!DOCTYPE svg PUBLIC "-//W3C//DTD SVG 1.1//EN" "http://www.w3.org/Graphics/SVG/1.1/DTD/svg11.dtd">
<svg version="1.1" id="Layer_1" xmlns="http://www.w3.org/2000/svg" xmlns:xlink="http://www.w3.org/1999/xlink" x="0px" y="0px"
	 viewBox="0 0 764.5 270" enable-background="new 0 0 764.5 270" xml:space="preserve">
<g id="copy">
	<path fill="#53C2BF" d="M308.6,38.1v28.4h-19.5v5.3h19.5v72.7c0,10.2,1.8,17.7,5.5,22.3c3.7,4.6,9,6.9,16.1,6.9
		c2.2,0,4.2-0.1,5.9-0.3c1.8-0.2,3.4-0.6,5.1-1.1l-1-4.8c-2.4,0.3-4.3,0.6-5.6,0.7c-1.4,0.1-2.9,0.2-4.7,0.2
		c-4.8,0-8.7-1.8-11.6-5.5c-2.9-3.7-4.4-9.8-4.4-18.4V71.9h25.9v-5.3h-25.9V38.1H308.6z"/>
	<path fill="#53C2BF" d="M430.6,154c0,2.7,0.1,5.1,0.4,7.4c0.3,2.3,0.9,5.8,1.7,10.4h5.8c-1-3.4-1.7-6.9-2.1-10.4
		c-0.4-3.5-0.6-7.1-0.6-10.8V97.8c0-10.8-3.4-19-10.2-24.7c-6.8-5.7-15.9-8.6-27.1-8.6c-11.1,0-20,2.8-26.7,8.5
		c-6.7,5.7-9.9,12.6-9.5,20.8l0.2,0.5l4.4,0.2c0-7.3,2.9-13.2,8.7-17.8c5.8-4.6,13.5-6.9,23-6.9c10.2,0,18.1,2.4,23.7,7.3
		c5.6,4.9,8.4,11.7,8.4,20.5V113h-30.1c-12.5,0-22.9,3-31.3,8.9c-8.3,6-12.5,13.4-12.5,22.2c0,9.1,2.8,16.3,8.4,21.6
		c5.6,5.3,13.3,8,23,8c10.2,0,19-2,26.2-6c7.2-4,12.6-9.2,16.2-15.5V154z M369.2,161.9c-4.8-4.5-7.1-10.3-7.1-17.4
		c0-7.4,3.7-13.6,11.2-18.6c7.5-5,16.7-7.5,27.6-7.5h29.8V142c-3.4,8.6-8.7,15.1-15.9,19.7c-7.2,4.6-16.1,6.9-26.5,6.9
		C380.3,168.6,374,166.4,369.2,161.9z"/>
	<path fill="#53C2BF" d="M471.1,66.5v113.9c0,9.1-2,16.1-5.9,21.1c-3.9,5-9.5,7.5-16.6,7.5c-1.6,0-3.3-0.2-5.1-0.6
		c-1.8-0.4-3.3-0.8-4.5-1.2l-1.3,5.1c2,0.6,3.9,1.1,5.5,1.5c1.7,0.3,3.5,0.5,5.3,0.5c8.8,0,15.6-2.9,20.4-8.8
		c4.9-5.9,7.3-14.2,7.3-25V66.5H471.1z"/>
	<rect x="470.5" y="20" fill="#53C2BF" width="5.3" height="13"/>
	<path fill="#53C2BF" d="M579,154c0,2.7,0.1,5.1,0.4,7.4c0.3,2.3,0.9,5.8,1.7,10.4h5.8c-1-3.4-1.7-6.9-2.1-10.4
		c-0.4-3.5-0.6-7.1-0.6-10.8V97.8c0-10.8-3.4-19-10.2-24.7c-6.8-5.7-15.9-8.6-27.1-8.6c-11.1,0-20,2.8-26.7,8.5
		c-6.7,5.7-9.9,12.6-9.5,20.8l0.2,0.5l4.4,0.2c0-7.3,2.9-13.2,8.7-17.8c5.8-4.6,13.5-6.9,23-6.9c10.2,0,18.1,2.4,23.7,7.3
		c5.6,4.9,8.4,11.7,8.4,20.5V113H549c-12.5,0-22.9,3-31.3,8.9c-8.3,6-12.5,13.4-12.5,22.2c0,9.1,2.8,16.3,8.4,21.6
		c5.6,5.3,13.3,8,23,8c10.2,0,19-2,26.2-6c7.2-4,12.6-9.2,16.2-15.5V154z M517.6,161.9c-4.8-4.5-7.1-10.3-7.1-17.4
		c0-7.4,3.7-13.6,11.2-18.6c7.5-5,16.7-7.5,27.6-7.5H579V142c-3.4,8.6-8.7,15.1-15.9,19.7c-7.2,4.6-16.1,6.9-26.5,6.9
		C528.7,168.6,522.4,166.4,517.6,161.9z"/>
	<path fill="#53C2BF" d="M617.1,66.5v105.2h5.3v-67.5c1.6-10.2,5.2-18.5,10.8-24.8c5.6-6.4,13.9-9.6,24.8-9.6
		c9.1,0,16.4,3.1,21.9,9.4c5.4,6.3,8.2,17,8.2,32.3v60.2h5.3v-59.8c0-0.9,0-1.8-0.1-2.8c-0.1-0.9-0.1-2.1-0.1-3.4
		c1.4-10.6,5-19.3,10.7-26c5.7-6.7,14.1-10.1,25.3-10.1c9.1,0,16.3,3.1,21.8,9.4c5.4,6.3,8.2,17.1,8.2,32.3v60.2h5.3v-60
		c0-16.3-3-28.2-9-35.8c-6-7.6-14.8-11.4-26.5-11.4c-9.5,0-17.4,2.5-23.7,7.5c-6.3,5-10.9,12-13.7,21c-2.1-9.7-6-16.8-11.7-21.4
		c-5.7-4.6-13-7-22.1-7c-8.6,0-15.8,2.1-21.8,6.2c-6,4.2-10.5,10-13.7,17.4l-0.7-21.7H617.1z"/>
</g>
<g id="logo_fill">
	<polyline fill="#53C2BF" points="135.8,0 135.8,267.9 203.7,213.4 135.8,0 	"/>
	<g>
		<polygon fill="#53C2BF" points="135.8,0 203.7,213.4 271.7,213.4 		"/>
	</g>
	<polyline fill="#53C2BF" points="135.8,0 135.8,267.9 67.9,213.4 135.8,0 	"/>
	<g>
		<polygon fill="#53C2BF" points="135.8,0 67.9,213.4 0,213.4 		"/>
	</g>
</g>
<g id="logo_outline">
	<polyline fill="#53C2BF" points="135.8,0 135.8,267.9 203.7,213.4 135.8,0 	"/>
	<g>
		<polygon fill="#53C2BF" points="135.8,0 203.7,213.4 271.7,213.4 		"/>
	</g>
	<polyline fill="#53C2BF" points="135.8,0 135.8,267.9 67.9,213.4 135.8,0 	"/>
	<g>
		<polygon fill="#53C2BF" points="135.8,0 67.9,213.4 0,213.4 		"/>
	</g>
</g>
</svg>
